<svg width="75" height="25" viewBox="0 0 75 25" fill="none" xmlns="http://www.w3.org/2000/svg">
<path fill-rule="evenodd" clip-rule="evenodd" d="M37.1361 1.71065C37.4972 1.42978 38.0028 1.42978 38.3639 1.71065L47.3639 8.71065C47.6075 8.9001 47.75 9.19141 47.75 9.5V20.5C47.75 21.2957 47.4339 22.0587 46.8713 22.6213C46.3087 23.1839 45.5457 23.5 44.75 23.5H30.75C29.9543 23.5 29.1913 23.1839 28.6287 22.6213C28.0661 22.0587 27.75 21.2957 27.75 20.5V9.5C27.75 9.19141 27.8925 8.9001 28.1361 8.71065L37.1361 1.71065ZM29.75 9.98908V20.5C29.75 20.7652 29.8554 21.0196 30.0429 21.2071C30.2304 21.3946 30.4848 21.5 30.75 21.5H44.75C45.0152 21.5 45.2696 21.3946 45.4571 21.2071C45.6446 21.0196 45.75 20.7652 45.75 20.5V9.98908L37.75 3.76686L29.75 9.98908Z" fill="#FF5784"/>
<path fill-rule="evenodd" clip-rule="evenodd" d="M33.75 12.5C33.75 11.9477 34.1977 11.5 34.75 11.5H40.75C41.3023 11.5 41.75 11.9477 41.75 12.5V22.5C41.75 23.0523 41.3023 23.5 40.75 23.5C40.1977 23.5 39.75 23.0523 39.75 22.5V13.5H35.75V22.5C35.75 23.0523 35.3023 23.5 34.75 23.5C34.1977 23.5 33.75 23.0523 33.75 22.5V12.5Z" fill="#FF5784"/>
</svg>
