<svg width="84" height="84" viewBox="0 0 84 84" fill="none" xmlns="http://www.w3.org/2000/svg">
<rect x="5" y="4" width="75" height="75" rx="22" fill="#FF5784" fill-opacity="0.1"/>
<circle opacity="0.5" cx="28" cy="28" r="6" fill="#FF5784"/>
<circle opacity="0.5" cx="56" cy="56" r="6" fill="#FF5784"/>
<path fill-rule="evenodd" clip-rule="evenodd" d="M38.5002 28C38.5002 27.1716 39.1718 26.5 40.0002 26.5H50.264C55.7664 26.5 57.859 33.686 53.2168 36.6401L32.3943 49.8908C30.2841 51.2336 31.2353 54.5 33.7364 54.5H40.3789L39.9395 54.0607C39.3538 53.4749 39.3538 52.5251 39.9395 51.9393C40.5253 51.3536 41.4751 51.3536 42.0609 51.9393L45.0609 54.9393C45.6466 55.5251 45.6466 56.4749 45.0609 57.0607L42.0609 60.0607C41.4751 60.6464 40.5253 60.6464 39.9395 60.0607C39.3538 59.4749 39.3538 58.5251 39.9395 57.9393L40.3789 57.5H33.7364C28.2339 57.5 26.1414 50.314 30.7836 47.3599L51.6062 34.1092C53.7163 32.7664 52.7651 29.5 50.264 29.5H40.0002C39.1718 29.5 38.5002 28.8284 38.5002 28Z" fill="#FF5784"/>
</svg>
