<svg width="76" height="76" viewBox="0 0 76 76" fill="none" xmlns="http://www.w3.org/2000/svg">
<path d="M23.5149 57H63.3327C63.3215 59.9437 63.2642 62.1388 62.9736 63.8734C62.6275 65.9389 61.9946 67.0326 61.0238 67.8117C60.053 68.5907 58.69 69.0986 56.1161 69.3763C53.4665 69.6622 49.9549 69.6667 44.9199 69.6667H30.889C25.8539 69.6667 22.3423 69.6622 19.6927 69.3763C17.1188 69.0986 15.7558 68.5907 14.785 67.8117C13.8142 67.0326 13.1813 65.9389 12.8352 63.8734C12.8092 63.7183 12.7851 63.5595 12.7627 63.3968C12.6358 62.4744 12.5723 62.0132 12.973 60.9258C13.3738 59.8384 13.5475 59.6678 13.895 59.3265C14.9255 58.3145 16.3388 57.5654 17.9645 57.2158C18.8838 57.0181 20.0835 57 23.5149 57Z" fill="#AC989E" fill-opacity="0.75"/>
<path opacity="0.5" d="M14.9688 8.6555C15.9358 7.68026 17.2936 7.04441 19.8576 6.69678C22.497 6.33893 25.9951 6.33331 31.0108 6.33331H44.9879C50.0036 6.33331 53.5017 6.33893 56.1411 6.69678C58.7051 7.04441 60.0629 7.68026 61.0299 8.6555C61.997 9.63075 62.6275 11 62.9723 13.5856C63.3271 16.2473 63.3327 19.775 63.3327 24.833L63.3327 57H23.5149C20.0835 57 18.8838 57.0181 17.9645 57.2158C16.3388 57.5654 14.9255 58.3145 13.895 59.3265C13.5475 59.6678 13.3738 59.8384 12.973 60.9258C12.7431 61.5497 12.666 61.9674 12.666 62.3844V24.833C12.666 19.775 12.6716 16.2473 13.0264 13.5856C13.3712 11 14.0017 9.63075 14.9688 8.6555Z" fill="#AC989E" fill-opacity="0.75"/>
<path d="M22.959 22.1667C22.959 20.855 24.0223 19.7917 25.334 19.7917H50.6673C51.979 19.7917 53.0423 20.855 53.0423 22.1667C53.0423 23.4784 51.979 24.5417 50.6673 24.5417H25.334C24.0223 24.5417 22.959 23.4784 22.959 22.1667Z" fill="#AC989E" fill-opacity="0.75"/>
<path d="M25.334 30.875C24.0223 30.875 22.959 31.9383 22.959 33.25C22.959 34.5617 24.0223 35.625 25.334 35.625H41.1673C42.479 35.625 43.5423 34.5617 43.5423 33.25C43.5423 31.9383 42.479 30.875 41.1673 30.875H25.334Z" fill="#AC989E" fill-opacity="0.75"/>
</svg>
