<svg width="25" height="25" viewBox="0 0 25 25" fill="none" xmlns="http://www.w3.org/2000/svg">
<g clip-path="url(#clip0_557_6145)">
<rect x="-24" y="-25" width="75" height="75" rx="22" fill="#FF5784" fill-opacity="0.1"/>
<path fill-rule="evenodd" clip-rule="evenodd" d="M13.029 15.2356L16.6833 11.5923C17.2096 11.0676 17.4727 10.8052 17.6113 10.4716C17.7499 10.138 17.7499 9.76699 17.7499 9.02498V8.67048C17.7499 7.52946 17.7499 6.95894 17.3944 6.60447C17.0389 6.25 16.4666 6.25 15.3222 6.25H14.9666C14.2224 6.25 13.8502 6.25 13.5156 6.38819C13.181 6.52637 12.9179 6.78872 12.3916 7.31341L8.73732 10.9567C8.12237 11.5698 7.74107 11.95 7.59342 12.3172C7.54676 12.4332 7.52344 12.5479 7.52344 12.6683C7.52344 13.1696 7.92807 13.573 8.73732 14.3798L8.84608 14.4883L10.1202 13.1952C10.3019 13.0108 10.5986 13.0086 10.7831 13.1903C10.9675 13.372 10.9697 13.6688 10.788 13.8532L9.51 15.1502L9.59567 15.2356C10.4049 16.0424 10.8095 16.4458 11.3124 16.4458C11.4235 16.4458 11.5298 16.4261 11.6367 16.3867C12.0137 16.2479 12.3986 15.8641 13.029 15.2356ZM14.7458 10.957C14.2718 11.4296 13.5032 11.4296 13.0291 10.957C12.5551 10.4844 12.5551 9.71809 13.0291 9.24546C13.5032 8.77283 14.2718 8.77283 14.7458 9.24546C15.2199 9.71809 15.2199 10.4844 14.7458 10.957Z" fill="#FF5784"/>
<g opacity="0.5">
<path d="M9.64643 8.7269L8.05696 10.3116C7.7648 10.6029 7.4968 10.8701 7.28515 11.1116C7.14923 11.2667 7.01341 11.4365 6.89836 11.6241L6.88287 11.6086C6.85347 11.5793 6.83875 11.5646 6.82399 11.5503C6.54772 11.2823 6.22276 11.0691 5.86647 10.9223C5.84743 10.9145 5.82811 10.9068 5.78947 10.8915L5.55281 10.7978C5.23221 10.6707 5.14676 10.258 5.39071 10.0148C6.09084 9.31677 6.93145 8.47871 7.33713 8.31039C7.69491 8.16194 8.0814 8.11255 8.45415 8.16764C8.79569 8.21811 9.11879 8.39355 9.64643 8.7269Z" fill="#FF5784"/>
<path d="M12.3604 17.0707C12.4885 17.2007 12.5736 17.2926 12.6505 17.3907C12.7519 17.5201 12.8427 17.6577 12.9218 17.8018C13.0108 17.9641 13.0799 18.1375 13.2181 18.4843C13.3306 18.7665 13.7045 18.8412 13.9216 18.6247L13.9741 18.5723C14.6742 17.8743 15.5148 17.0362 15.6836 16.6317C15.8325 16.275 15.8821 15.8897 15.8268 15.5181C15.7762 15.1776 15.6003 14.8555 15.266 14.3296L13.6712 15.9196C13.3725 16.2175 13.0985 16.4906 12.8507 16.7046C12.7023 16.8328 12.5398 16.961 12.3604 17.0707Z" fill="#FF5784"/>
</g>
</g>
<defs>
<clipPath id="clip0_557_6145">
<rect width="25" height="25" rx="7" fill="white"/>
</clipPath>
</defs>
</svg>
