<svg width="52" height="52" viewBox="0 0 52 52" fill="none" xmlns="http://www.w3.org/2000/svg">
<path opacity="0.5" d="M21.667 43.3334H30.3336H30.3336C38.5046 43.3334 42.5901 43.3334 45.1285 40.795C47.667 38.2566 47.667 34.1711 47.667 26.0001C47.667 25.0426 47.6634 22.5161 47.6593 21.6667H4.33415C4.33006 22.5161 4.33363 25.0426 4.33363 26.0001C4.33363 34.1711 4.33363 38.2566 6.87204 40.795C9.41044 43.3334 13.4959 43.3334 21.6669 43.3334H21.667Z" fill="#FF5784"/>
<path d="M21.6561 8.66675H30.3452C38.5372 8.66675 42.6333 8.66675 45.1782 11.0843C47.0106 12.8249 47.5237 15.3294 47.6673 19.5001V21.6667H4.33398V19.5001C4.47764 15.3294 4.99069 12.8249 6.82307 11.0843C9.36803 8.66675 13.4641 8.66675 21.6561 8.66675Z" fill="#FF5784"/>
<path d="M27.0833 33.0417C26.1859 33.0417 25.4583 33.7693 25.4583 34.6667C25.4583 35.5642 26.1859 36.2917 27.0833 36.2917H30.3333C31.2308 36.2917 31.9583 35.5642 31.9583 34.6667C31.9583 33.7693 31.2308 33.0417 30.3333 33.0417H27.0833Z" fill="#FF5784"/>
<path d="M13 33.0417C12.1025 33.0417 11.375 33.7693 11.375 34.6667C11.375 35.5642 12.1025 36.2917 13 36.2917H21.6667C22.5641 36.2917 23.2917 35.5642 23.2917 34.6667C23.2917 33.7693 22.5641 33.0417 21.6667 33.0417H13Z" fill="#FF5784"/>
</svg>
