<svg width="19" height="19" viewBox="0 0 19 19" fill="none" xmlns="http://www.w3.org/2000/svg">
<path opacity="0.5" d="M2.59279 12.1091C1.91993 11.2349 1.5835 10.7979 1.5835 9.50002C1.5835 8.20218 1.91993 7.7651 2.59279 6.89095C3.9363 5.1455 6.1895 3.16669 9.50016 3.16669C12.8108 3.16669 15.064 5.1455 16.4075 6.89095C17.0804 7.7651 17.4168 8.20218 17.4168 9.50002C17.4168 10.7979 17.0804 11.2349 16.4075 12.1091C15.064 13.8545 12.8108 15.8334 9.50016 15.8334C6.1895 15.8334 3.9363 13.8545 2.59279 12.1091Z" stroke="black"/>
<path d="M11.875 9.5C11.875 10.8117 10.8117 11.875 9.5 11.875C8.18832 11.875 7.125 10.8117 7.125 9.5C7.125 8.18832 8.18832 7.125 9.5 7.125C10.8117 7.125 11.875 8.18832 11.875 9.5Z" stroke="black"/>
</svg>
