<svg width="25" height="25" viewBox="0 0 25 25" fill="none" xmlns="http://www.w3.org/2000/svg">
<path fill-rule="evenodd" clip-rule="evenodd" d="M9.71455 3.32057C11.3373 2.55981 13.163 2.55981 14.7858 3.32057L21.477 6.45756C22.5293 6.9509 23.0002 8.02222 23.0002 9.00002C23.0002 9.97782 22.5292 11.0491 21.477 11.5425L20 12.2349V17.1254C20 18.3785 19.3717 19.5883 18.228 20.2217C17.4763 20.638 16.4884 21.1391 15.4488 21.538C14.4215 21.9321 13.2839 22.25 12.25 22.25C11.2161 22.25 10.0785 21.9321 9.05117 21.538C8.01159 21.1391 7.02371 20.638 6.27199 20.2217C5.12826 19.5883 4.5 18.3785 4.5 17.1254V12C4.5 11.9586 4.50336 11.9179 4.50982 11.8783C4.4863 11.7343 4.50448 11.5818 4.57112 11.4397C4.74695 11.0647 5.19352 10.9032 5.56856 11.079L10.3514 13.3213C11.5707 13.8929 12.9298 13.8929 14.1491 13.3213L20.8402 10.1843C21.2434 9.99531 21.5002 9.54443 21.5002 9.00002C21.5002 8.45562 21.2434 8.00473 20.8402 7.81571L14.149 4.67873C12.9297 4.10709 11.5706 4.10709 10.3513 4.67872L3.66017 7.81567C3.28512 7.9915 2.83855 7.83 2.66272 7.45496C2.4869 7.07992 2.64839 6.63335 3.02343 6.45752L9.71455 3.32057ZM6 12.9379V17.1254C6 17.8884 6.37875 18.5661 6.99869 18.9095C7.71533 19.3063 8.63679 19.7724 9.58845 20.1375C10.5523 20.5073 11.4879 20.75 12.25 20.75C13.0121 20.75 13.9477 20.5073 14.9116 20.1375C15.8632 19.7724 16.7847 19.3063 17.5013 18.9095C18.1213 18.5661 18.5 17.8884 18.5 17.1254V12.9381L14.7858 14.6794C13.1631 15.4402 11.3374 15.4402 9.71464 14.6794L6 12.9379Z" fill="#484C52"/>
<path d="M6.93936 8.20456C7.10253 8.58528 6.92616 9.02619 6.54544 9.18936L5.46977 9.65036C4.867 9.90869 4.46985 10.08 4.178 10.2442C3.90202 10.3994 3.78244 10.5154 3.70645 10.6307C3.63046 10.7459 3.57095 10.9015 3.53696 11.2164C3.50101 11.5493 3.5 11.9818 3.5 12.6376V15.5C3.5 15.9142 3.16422 16.25 2.75 16.25C2.33579 16.25 2 15.9142 2 15.5V12.5987C1.99998 11.9923 1.99996 11.4782 2.04563 11.0553C2.09421 10.6053 2.19986 10.1906 2.45419 9.80494C2.70851 9.41925 3.04805 9.15879 3.44254 8.93686C3.81327 8.7283 4.28569 8.52585 4.84315 8.28696L5.95456 7.81064C6.33529 7.64747 6.7762 7.82384 6.93936 8.20456Z" fill="#484C52"/>
</svg>
