<svg width="18" height="19" viewBox="0 0 18 19" fill="none" xmlns="http://www.w3.org/2000/svg">
<path d="M9 6.8C9.917 5.863 11.111 5.25 12.5 5.25C13.9587 5.25 15.3576 5.82946 16.3891 6.86091C17.4205 7.89236 18 9.29131 18 10.75V18.25H16V10.75C16 9.82174 15.6313 8.9315 14.9749 8.27513C14.3185 7.61875 13.4283 7.25 12.5 7.25C11.5717 7.25 10.6815 7.61875 10.0251 8.27513C9.36875 8.9315 9 9.82174 9 10.75V18.25H7V5.75H9V6.8ZM2 3.75C1.60218 3.75 1.22064 3.59196 0.93934 3.31066C0.658035 3.02936 0.5 2.64782 0.5 2.25C0.5 1.85218 0.658035 1.47064 0.93934 1.18934C1.22064 0.908035 1.60218 0.75 2 0.75C2.39782 0.75 2.77936 0.908035 3.06066 1.18934C3.34196 1.47064 3.5 1.85218 3.5 2.25C3.5 2.64782 3.34196 3.02936 3.06066 3.31066C2.77936 3.59196 2.39782 3.75 2 3.75ZM1 5.75H3V18.25H1V5.75Z" fill="#FF5784"/>
</svg>
