<svg width="76" height="76" viewBox="0 0 76 76" fill="none" xmlns="http://www.w3.org/2000/svg">
<path fill-rule="evenodd" clip-rule="evenodd" d="M45.125 14.1853L45.1249 23.8678C45.1244 24.2201 45.1237 24.7222 45.191 25.1532C45.2734 25.6802 45.5444 26.6975 46.5979 27.3161C47.6124 27.9117 48.6047 27.6905 49.0763 27.5439C49.4875 27.4161 49.9384 27.2013 50.2746 27.0412L53.8333 25.3506L57.3921 27.0412C57.7283 27.2013 58.1792 27.4161 58.5904 27.5439C59.062 27.6905 60.0543 27.9117 61.0688 27.3161C62.1222 26.6975 62.3933 25.6802 62.4756 25.1532C62.543 24.7222 62.5423 24.2201 62.5418 23.8679L62.5417 9.59917C62.8988 9.58238 63.2496 9.56818 63.5924 9.55624C66.9864 9.43801 69.6661 12.2257 69.6661 15.6218V51.1214C69.6661 54.6395 66.797 57.486 63.2857 57.7056C60.2159 57.8976 56.609 58.2731 53.8328 59.0057C50.4082 59.9094 47.5336 62.386 43.1535 63.5527C41.1707 64.0807 38.9591 64.3649 38 64.5764V16.384C39.0157 16.1352 42.3771 15.7429 43.2999 15.2088C43.8835 14.871 44.4954 14.5265 45.125 14.1853ZM62.4708 40.5907C62.7889 41.8632 62.0152 43.1527 60.7427 43.4708L48.076 46.6375C46.8035 46.9556 45.514 46.1819 45.1959 44.9094C44.8778 43.6369 45.6515 42.3474 46.924 42.0293L59.5906 38.8626C60.8632 38.5445 62.1526 39.3182 62.4708 40.5907Z" fill="#AC989E" fill-opacity="0.75"/>
<path d="M57.7917 9.97823C55.8282 10.2104 53.898 10.5501 52.2494 11.0436C51.4846 11.2726 50.6863 11.5628 49.875 11.8953V12.5084V21.9722L52.2478 20.8451L52.2757 20.8311C52.4309 20.7517 53.0849 20.4173 53.8333 20.4173C53.9839 20.4173 54.1306 20.4309 54.2702 20.4531C54.8247 20.5415 55.267 20.7677 55.3909 20.8311L55.4188 20.8451L57.7917 21.9722V11.5478V9.97823Z" fill="#AC989E" fill-opacity="0.75"/>
<path opacity="0.5" d="M38.0006 16.5108C36.9422 16.3098 34.6523 16 32.5611 15.4389C28.3046 14.2967 25.4898 11.9202 22.1673 11.0435C19.36 10.3027 15.7034 9.92707 12.6116 9.73705C9.1406 9.52372 6.33398 12.3487 6.33398 15.8263V51.1212C6.33398 54.6393 9.20313 57.4859 12.7144 57.7055C15.7842 57.8975 19.3911 58.2729 22.1673 59.0055C23.7062 59.4116 26.0185 60.3709 28.0983 61.3042C31.2794 62.7317 34.5956 63.8261 38.0006 64.5765V16.5108Z" fill="#AC989E" fill-opacity="0.75"/>
<path d="M13.5305 40.5912C13.8486 39.3187 15.1381 38.545 16.4106 38.8631L29.0772 42.0298C30.3497 42.3479 31.1234 43.6374 30.8053 44.9099C30.4872 46.1824 29.1977 46.9561 27.9252 46.638L15.2585 43.4713C13.986 43.1532 13.2123 41.8637 13.5305 40.5912Z" fill="#AC989E" fill-opacity="0.75"/>
<path d="M16.4106 26.1965C15.1381 25.8783 13.8486 26.652 13.5305 27.9245C13.2123 29.1971 13.986 30.4865 15.2585 30.8046L27.9252 33.9713C29.1977 34.2894 30.4872 33.5158 30.8053 32.2433C31.1234 30.9707 30.3497 29.6813 29.0772 29.3631L16.4106 26.1965Z" fill="#AC989E" fill-opacity="0.75"/>
</svg>
