<svg width="11" height="11" viewBox="0 0 11 11" fill="none" xmlns="http://www.w3.org/2000/svg">
<g clip-path="url(#clip0_557_6134)">
<path fill-rule="evenodd" clip-rule="evenodd" d="M8.31652 1.66421C7.78028 1.7596 7.05732 1.99961 6.04272 2.33782L3.74588 3.10343C2.93004 3.37538 2.33912 3.57264 1.92174 3.75016C1.48537 3.93576 1.33014 4.06513 1.27973 4.15185C1.12444 4.41896 1.12444 4.74885 1.27973 5.01596C1.33014 5.10268 1.48537 5.23205 1.92174 5.41764C2.33911 5.59516 2.93004 5.79243 3.74588 6.06438C3.75876 6.06868 3.77148 6.07291 3.78405 6.07709C4.00688 6.15121 4.18011 6.20883 4.32913 6.30859C4.4727 6.4047 4.59603 6.52804 4.69214 6.67161C4.7919 6.82063 4.84953 6.99386 4.92365 7.21669C4.92783 7.22925 4.93206 7.24197 4.93635 7.25485C5.2083 8.0707 5.40557 8.66162 5.58309 9.07899C5.76868 9.51536 5.89805 9.67059 5.98477 9.721C6.25188 9.87629 6.58178 9.87629 6.84889 9.721C6.93561 9.67059 7.06497 9.51536 7.25057 9.07899C7.42809 8.66162 7.62536 8.0707 7.8973 7.25486L8.66292 4.95802C9.00112 3.94341 9.24113 3.22046 9.33652 2.68422C9.43237 2.14542 9.35912 1.91655 9.22165 1.77908C9.08418 1.64161 8.85531 1.56837 8.31652 1.66421ZM8.19317 0.970817C8.79001 0.864645 9.32755 0.888979 9.71965 1.28108C10.1118 1.67318 10.1361 2.21072 10.0299 2.80756C9.92438 3.4008 9.66704 4.17281 9.34122 5.15023L8.5598 7.4945C8.29467 8.28991 8.08865 8.90795 7.89866 9.35464C7.71541 9.78551 7.51193 10.1502 7.20285 10.3299C6.71691 10.6124 6.11674 10.6124 5.6308 10.3299C5.32173 10.1502 5.11825 9.78551 4.93499 9.35464C4.74501 8.90795 4.539 8.28992 4.27387 7.49452L4.26821 7.47757C4.17533 7.19891 4.14701 7.12332 4.1069 7.0634C4.06201 6.99634 4.0044 6.93873 3.93734 6.89384C3.87742 6.85372 3.80183 6.82541 3.52317 6.73252L3.50619 6.72686C2.7108 6.46173 2.09277 6.25573 1.64609 6.06574C1.21522 5.88248 0.850542 5.679 0.670861 5.36993C0.388359 4.88399 0.388359 4.28382 0.670862 3.79788C0.850543 3.48881 1.21522 3.28533 1.64609 3.10207C2.09278 2.91208 2.71082 2.70607 3.50622 2.44094L5.85051 1.65951C6.82792 1.33369 7.59994 1.07635 8.19317 0.970817ZM8.10431 2.89919C8.24106 3.03747 8.23983 3.26042 8.10155 3.39718L6.22347 5.25456C6.08519 5.39131 5.86223 5.39008 5.72547 5.2518C5.58872 5.11352 5.58995 4.89056 5.72823 4.75381L7.60631 2.89643C7.74459 2.75967 7.96755 2.76091 8.10431 2.89919Z" fill="#FF5784"/>
</g>
<defs>
<clipPath id="clip0_557_6134">
<rect width="11" height="11" fill="white"/>
</clipPath>
</defs>
</svg>
