<svg width="25" height="24" viewBox="0 0 25 24" fill="none" xmlns="http://www.w3.org/2000/svg">
<path d="M12.4585 0.142548C13.7702 0.142548 14.8335 1.20587 14.8335 2.51755V9.64263H21.9585C23.2702 9.64263 24.3335 10.7059 24.3335 12.0176C24.3335 13.3293 23.2702 14.3926 21.9585 14.3926H14.8335L14.8335 21.5175C14.8335 22.8292 13.7702 23.8925 12.4585 23.8925C11.1468 23.8925 10.0835 22.8292 10.0835 21.5175V14.3926H2.9585C1.64682 14.3926 0.583496 13.3293 0.583496 12.0176C0.583496 10.706 1.64682 9.64263 2.9585 9.64263H10.0835L10.0835 2.51755C10.0835 1.20587 11.1468 0.142548 12.4585 0.142548Z" fill="#0077B5"/>
</svg>
