<svg width="25" height="25" viewBox="0 0 25 25" fill="none" xmlns="http://www.w3.org/2000/svg">
<path d="M18.93 8.53933L19.3935 8.07589C20.1613 7.30804 21.4063 7.30804 22.1741 8.07589C22.942 8.84374 22.942 10.0887 22.1741 10.8565L21.7107 11.32M18.93 8.53933C18.93 8.53933 18.988 9.52414 19.8569 10.3931C20.7259 11.262 21.7107 11.32 21.7107 11.32M18.93 8.53933L14.6694 12.7999C14.3808 13.0885 14.2365 13.2328 14.1124 13.3919C13.9661 13.5796 13.8406 13.7827 13.7382 13.9975C13.6514 14.1797 13.5868 14.3732 13.4578 14.7604L13.0446 16L12.9109 16.401M21.7107 11.32L17.4501 15.5806C17.1615 15.8692 17.0172 16.0135 16.8581 16.1376C16.6704 16.2839 16.4673 16.4094 16.2525 16.5118C16.0703 16.5986 15.8768 16.6632 15.4896 16.7922L14.25 17.2054L13.849 17.3391M13.849 17.3391L13.4479 17.4728C13.2574 17.5363 13.0473 17.4867 12.9053 17.3447C12.7633 17.2027 12.7137 16.9926 12.7772 16.8021L12.9109 16.401M13.849 17.3391L12.9109 16.401" stroke="#484C52" stroke-width="1.5"/>
<path d="M8.75 13.5H11.25" stroke="#484C52" stroke-width="1.5" stroke-linecap="round"/>
<path d="M8.75 9.5H15.25" stroke="#484C52" stroke-width="1.5" stroke-linecap="round"/>
<path d="M8.75 17.5H10.25" stroke="#484C52" stroke-width="1.5" stroke-linecap="round"/>
<path d="M20.5784 3.67157C19.4069 2.5 17.5212 2.5 13.75 2.5H11.75C7.97876 2.5 6.09315 2.5 4.92157 3.67157C3.75 4.84315 3.75 6.72876 3.75 10.5V14.5C3.75 18.2712 3.75 20.1569 4.92157 21.3284C6.09315 22.5 7.97876 22.5 11.75 22.5H13.75C17.5212 22.5 19.4069 22.5 20.5784 21.3284C21.5215 20.3853 21.7054 18.9796 21.7413 16.5" stroke="#484C52" stroke-width="1.5" stroke-linecap="round"/>
</svg>
